# xmcd
#
# Track frame offsets:
#	150
#	11577
#	22826
#	34201
#	47443
#	63120
#	74007
#	85217
#	97326
#	113414
#	125298
#	137660
#	148263
#	165476
#	179121
#	194488
#	210829
#
# Disc length: 2955 seconds
#
# Revision: 2
# Processed by: cddbd v1.5.1PL2 Copyright (c) Steve Scherf et al.
# Submitted via: EasyCDDAExtractor 9.0.0.1
#
DISCID=ec0b8911
DTITLE=Waylon Jennings - Legends - Disc 3 of 3
DYEAR=2002
DGENRE=Country
TTITLE0=You Ask Me To
TTITLE1=Black Rose
TTITLE2=Rainy Day Woman
TTITLE3=I Recall A Gypsy Woman
TTITLE4=Oklahoma Sunshine
TTITLE5=Let's Turn Back The Years
TTITLE6=Walkin'
TTITLE7=Cloudy Days
TTITLE8=Bob Wills Is Still The King
TTITLE9=Omaha
TTITLE10=We Had It All
TTITLE11=Low Down Freedom
TTITLE12=San Fransisco Mabel Joy
TTITLE13=Pretend I Never Happened
TTITLE14=Midnight Rider
TTITLE15=I Can't Keep My Hands Off You
TTITLE16=Dreaming My Dreams With You
EXTD=
EXTT0=
EXTT1=
EXTT2=
EXTT3=
EXTT4=
EXTT5=
EXTT6=
EXTT7=
EXTT8=
EXTT9=
EXTT10=
EXTT11=
EXTT12=
EXTT13=
EXTT14=
EXTT15=
EXTT16=
PLAYORDER=
